<svg width="32" height="32" viewBox="0 0 32 32" fill="none" xmlns="http://www.w3.org/2000/svg">
<path d="M16.8913 4.27582V4.7461L17.3607 4.77489C20.8305 4.98764 24.0818 6.54334 26.4244 9.11163C28.7673 11.6803 30.0178 15.0598 29.9113 18.5347C29.8048 22.0091 28.3498 25.3059 25.8542 27.7263C23.3585 30.1464 20.0188 31.5 16.5421 31.5C13.0654 31.5 9.72553 30.1464 7.23011 27.7263L7.23009 27.7263C4.73443 25.3061 3.27945 22.0094 3.17294 18.5347C3.06644 15.0598 4.31696 11.6802 6.65984 9.11164C9.00269 6.5433 12.2531 4.98765 15.7229 4.77489L16.1923 4.7461V4.27582V1.69902V1.19902H15.6923H14.7764V0.5H18.3072V1.19902H17.3913H16.8913V1.69902V4.27582Z" stroke="#2C4DAE"/>
<path d="M11.9999 18.0694L14.8509 20.9204L20.9203 14.851" stroke="#2C4DAE" stroke-width="1.5"/>
</svg>
